<svg width="1000" height="1000" viewBox="0 0 264.583 264.583" xmlns="http://www.w3.org/2000/svg">
  <path style="fill:#5e2338;stroke-width:.265" d="M146.333 213.115c50.8 0 97.631-22.49 97.631-64.294 0-34.131-21.696-64.03-69.585-78.581-44.98-13.759-110.067-19.05-133.085 4.498-23.02 23.548-29.898 77.522-1.852 103.98 23.018 21.697 53.71 34.397 106.891 34.397m14.817-47.36c-48.419 2.38-84.402-2.117-119.856-26.46-10.32-6.614-2.91-20.372 6.085-14.287 28.84 19.844 67.204 26.988 112.712 24.871 6.086-.264 10.584 1.323 10.584 7.144 0 5.027-4.763 8.467-9.525 8.731" aria-label="Icon of azooKey"/>
</svg>